<svg width="125" height="31" viewBox="0 0 125 31" fill="none" xmlns="http://www.w3.org/2000/svg">
<path fill-rule="evenodd" clip-rule="evenodd" d="M58.3251 4.92876C58.3251 5.99398 57.4577 6.85751 56.3877 6.85751C55.3177 6.85751 54.4503 5.99398 54.4503 4.92876C54.4503 3.86353 55.3177 3 56.3877 3C57.4577 3 58.3251 3.86353 58.3251 4.92876ZM80.0777 20.0101V20.7399H76.7717V14.2272V3.67833H80.0777V8.44421C81.087 7.84655 82.266 7.5033 83.5255 7.5033C87.2555 7.5033 90.2793 10.5137 90.2793 14.2272C90.2793 17.9407 87.2555 20.951 83.5255 20.951C82.266 20.951 81.087 20.6078 80.0777 20.0101ZM86.8991 14.227C86.8991 16.1746 85.3132 17.7535 83.3569 17.7535C81.4006 17.7535 79.8147 16.1746 79.8147 14.227C79.8147 12.2793 81.4006 10.7005 83.3569 10.7005C85.3132 10.7005 86.8991 12.2793 86.8991 14.227ZM43.833 3.68043V6.43704H39.137V20.7397H35.696V6.43704H31V3.68043H43.833ZM47.5268 9.73626C47.9519 9.04663 48.5029 8.5059 49.1798 8.11407C49.8725 7.72223 51.0642 7.52631 51.9459 7.52631V10.9823H50.6676C49.6285 10.9823 48.8413 11.2252 48.3061 11.7111C47.7866 12.197 47.5268 13.0433 47.5268 14.2502V20.739H44.2207V7.71439H47.5268V9.73626ZM58.192 20.7391V7.71457H54.5622V20.7391H58.192ZM96.4236 10.4193V16.72C96.4236 17.1588 96.5259 17.4801 96.7306 17.6839C96.951 17.872 97.313 17.966 97.8168 17.966H99.3518V20.7402H97.2737C94.4871 20.7402 93.0939 19.3923 93.0939 16.6965V10.4193H91.5353V7.71562H93.0939V4.83061H96.4236V7.71562H99.3518V10.4193H96.4236ZM124.84 18.0346H118.952L124.768 10.3703V7.71368H115.185V10.4173H120.93L115.161 18.0816V20.7382H124.84V18.0346ZM107.449 20.9501C111.18 20.9501 114.203 17.9398 114.203 14.2263C114.203 10.5128 111.18 7.50241 107.449 7.50241C103.719 7.50241 100.696 10.5128 100.696 14.2263C100.696 17.9398 103.719 20.9501 107.449 20.9501ZM107.449 17.7537C109.406 17.7537 110.991 16.1749 110.991 14.2272C110.991 12.2796 109.406 10.7007 107.449 10.7007C105.493 10.7007 103.907 12.2796 103.907 14.2272C103.907 16.1749 105.493 17.7537 107.449 17.7537ZM68.1975 20.9501C71.9276 20.9501 74.9513 17.9398 74.9513 14.2263C74.9513 10.5128 71.9276 7.50241 68.1975 7.50241C66.938 7.50241 65.759 7.84566 64.7498 8.44332V7.71398H61.4437V14.2263V24.6274H64.7498V20.0092C65.759 20.6069 66.938 20.9501 68.1975 20.9501ZM71.5708 14.2272C71.5708 16.1749 69.9849 17.7537 68.0286 17.7537C66.0722 17.7537 64.4863 16.1749 64.4863 14.2272C64.4863 12.2796 66.0722 10.7007 68.0286 10.7007C69.9849 10.7007 71.5708 12.2796 71.5708 14.2272Z" fill="white"/>
<path fill-rule="evenodd" clip-rule="evenodd" d="M3.4029 21.098V10.9454L13.824 3.98152L20.4174 8.46983V16.7945L23.8203 19V6.68934L13.8249 0L0 9.16398V24.5009H12.8176V21.098H3.4029Z" fill="url(#paint0_diamond_5646_30683)"/>
<path d="M26.8529 20.72L12.5033 11.0552C12.287 10.9095 12 11.0692 12 11.3352V30.6648C12 30.9308 12.287 31.0905 12.5033 30.9448L26.8529 21.28C27.049 21.1479 27.049 20.8521 26.8529 20.72Z" fill="white"/>
<defs>
<radialGradient id="paint0_diamond_5646_30683" cx="0" cy="0" r="1" gradientUnits="userSpaceOnUse" gradientTransform="translate(24.1194 24.3774) rotate(-180) scale(21.4228 15.9777)">
<stop stop-color="white" stop-opacity="0"/>
<stop offset="1" stop-color="white"/>
</radialGradient>
</defs>
</svg>
